# xmcd CD database file
#
# Track frame offsets:
#	150
#	13427
#	26313
#	39583
#	52103
#	61540
#	74702
#	82074
#	95265
#	109974
#	123131
#	130799
#	140958
#	156126
#
# Disc length: 2311 seconds
#
# Revision: 1
# Processed by: cddbd v1.5.2PL0 Copyright (c) Steve Scherf et al.
# Submitted via: CDex 1.70beta2
#
DISCID=c609050e
DTITLE=Big Boss Man - Full English Beat Breakfast
DYEAR=2009
DGENRE=Breakbeat
TTITLE0=Triumph Of The Olympian
TTITLE1=Beat Breakfast
TTITLE2=Black Eye [I Believed In Love]
TTITLE3=Full Brazilian
TTITLE4=C'est Moi
TTITLE5=Clown Face
TTITLE6=VIP 233
TTITLE7=Hairy Mary
TTITLE8=Pies And Pastiche
TTITLE9=Pies And Pastiche
TTITLE10=Trilby Of Fun
TTITLE11=Slap Head's Demise
TTITLE12=The Bloater
TTITLE13=Luna 2
EXTD=YEAR: 2009
EXTT0=
EXTT1=
EXTT2=
EXTT3=
EXTT4=
EXTT5=
EXTT6=
EXTT7=
EXTT8=
EXTT9=
EXTT10=
EXTT11=
EXTT12=
EXTT13=
PLAYORDER=
